# xmcd
# 
# Track frame offsets:
#     150
#     27603
#     51433
#     68336
#     90648
#     109398
#     144482
#     159629
#     182423
# 
# Disc length: 2948
# 
# Revision: 0
# Processed by: cddbd v1.5.2PL0 Copyright (c) Steve Scherf et al.
# Submitted via: fre:ac v1.0.31
# 
DISCID=780b8209
DTITLE=Maverick Business Insider - Yanik Silver CD1
DYEAR=0
DGENRE=
TTITLE0=01
TTITLE1=02
TTITLE2=03
TTITLE3=04
TTITLE4=05
TTITLE5=06
TTITLE6=07
TTITLE7=08
TTITLE8=09
EXTD=
EXTT0=
EXTT1=
EXTT2=
EXTT3=
EXTT4=
EXTT5=
EXTT6=
EXTT7=
EXTT8=
PLAYORDER=
